<?xml version="1.0" standalone="no"?>
<!DOCTYPE svg PUBLIC "-//W3C//DTD SVG 20010904//EN"
 "http://www.w3.org/TR/2001/REC-SVG-20010904/DTD/svg10.dtd">
<svg version="1.0" xmlns="http://www.w3.org/2000/svg"
 width="578.000000pt" height="453.000000pt" viewBox="0 0 578.000000 453.000000"
 preserveAspectRatio="xMidYMid meet">

<g transform="translate(0.000000,453.000000) scale(0.100000,-0.100000)"
fill="#000000" stroke="none">
<path d="M1240 4203 c-190 -22 -343 -113 -428 -255 -18 -31 -43 -96 -57 -152
l-25 -99 0 -658 0 -659 165 0 165 0 0 170 0 170 985 0 985 0 -2 -427 -3 -428
-527 -3 -528 -2 45 -67 c25 -36 62 -102 82 -145 l38 -78 448 0 447 0 -2 -427
-3 -428 -412 -3 -412 -2 -11 -43 c-8 -33 -70 -191 -107 -275 -4 -10 292 -12
1538 -10 l1544 3 80 28 c156 55 250 133 313 261 71 143 67 55 67 1616 0 1337
-1 1409 -19 1485 -39 169 -129 291 -264 359 -152 76 28 70 -2132 72 -1064 0
-1951 -1 -1970 -3z m1788 -755 l2 -428 -986 0 -986 0 4 318 c3 307 4 319 27
369 40 89 122 148 231 166 14 2 403 4 865 3 l840 -1 3 -427z m2105 394 c74
-37 108 -74 138 -152 17 -46 19 -78 19 -360 l0 -310 -985 0 -985 0 0 423 c0
233 3 427 7 431 4 4 397 5 873 4 l865 -3 68 -33z m157 -1552 l0 -430 -982 2
-983 3 -3 428 -2 427 985 0 985 0 0 -430z m0 -1030 c0 -291 -1 -313 -21 -366
-28 -75 -89 -135 -160 -160 -51 -18 -98 -19 -919 -19 l-865 0 -3 428 -2 427
985 0 985 0 0 -310z"/>
<path d="M905 1885 c-198 -36 -343 -142 -426 -309 -100 -204 -84 -340 76 -654
92 -181 316 -542 407 -655 l23 -28 34 48 c234 330 434 681 496 867 50 149 41
290 -27 426 -45 90 -163 207 -250 249 -119 56 -230 75 -333 56z m232 -100 c88
-30 140 -64 205 -133 121 -129 158 -309 98 -482 -28 -82 -128 -284 -210 -420
-74 -125 -228 -358 -241 -366 -14 -8 -34 19 -165 226 -187 294 -311 549 -328
676 -22 160 87 371 238 459 116 68 273 83 403 40z"/>
<path d="M882 1713 c-128 -30 -244 -142 -286 -276 -45 -142 5 -313 121 -416
83 -74 144 -96 268 -96 91 0 106 3 166 31 260 123 315 468 106 661 -54 50
-107 78 -184 98 -69 18 -109 18 -191 -2z m237 -93 c60 -26 133 -101 164 -168
32 -69 31 -198 -3 -267 -99 -204 -365 -251 -527 -93 -140 137 -123 376 35 492
94 68 222 82 331 36z"/>
<path d="M930 1601 c-97 -21 -189 -105 -216 -199 -33 -112 8 -232 101 -304 60
-45 118 -62 193 -55 225 20 334 293 186 465 -60 70 -177 112 -264 93z m114
-83 c60 -18 120 -83 135 -146 14 -58 8 -100 -22 -154 -62 -113 -235 -132 -324
-36 -51 54 -68 158 -38 222 32 67 116 124 184 126 13 0 42 -6 65 -12z"/>
<path d="M947 1433 c-4 -3 -7 -21 -7 -40 0 -32 -1 -33 -40 -33 l-40 0 0 -40
c0 -40 0 -40 39 -40 39 0 40 -1 43 -37 3 -36 5 -38 41 -41 l37 -3 0 40 0 41
45 0 45 0 0 40 0 40 -45 0 -45 0 0 40 c0 39 -1 40 -33 40 -19 0 -37 -3 -40 -7z"/>
</g>
</svg>
