<?xml version="1.0" standalone="no"?>
<!DOCTYPE svg PUBLIC "-//W3C//DTD SVG 20010904//EN"
 "http://www.w3.org/TR/2001/REC-SVG-20010904/DTD/svg10.dtd">
<svg version="1.0" xmlns="http://www.w3.org/2000/svg"
 width="1024.000000pt" height="1024.000000pt" viewBox="0 0 1024.000000 1024.000000"
 preserveAspectRatio="xMidYMid meet">

<g transform="translate(0.000000,1024.000000) scale(0.100000,-0.100000)"
fill="#000000" stroke="none">
<path d="M4850 9493 c-1501 -91 -2819 -920 -3528 -2220 -388 -712 -570 -1502
-532 -2317 28 -615 164 -1147 430 -1691 310 -632 765 -1184 1320 -1601 551
-413 1244 -703 1920 -803 259 -38 363 -45 645 -45 303 0 468 14 740 60 893
154 1710 586 2350 1245 825 849 1263 1971 1232 3154 -7 258 -16 360 -53 585
-122 759 -426 1443 -912 2052 -123 155 -439 475 -595 604 -462 380 -1046 681
-1617 833 -434 116 -964 170 -1400 144z m695 -413 c855 -92 1663 -473 2284
-1075 677 -658 1093 -1540 1181 -2510 13 -140 13 -504 0 -660 -64 -787 -368
-1545 -874 -2179 -44 -56 -161 -182 -260 -282 -643 -642 -1430 -1022 -2356
-1136 -66 -8 -221 -13 -420 -13 -340 1 -489 14 -770 71 -719 144 -1407 510
-1949 1039 -329 321 -566 645 -770 1055 -155 312 -250 573 -325 900 -256 1115
8 2354 697 3265 237 313 549 615 867 842 600 426 1313 670 2055 702 174 7 482
-2 640 -19z"/>
<path d="M4627 8469 c-381 -41 -672 -287 -757 -641 -32 -132 -57 -119 220
-116 l241 3 23 65 c29 83 61 134 120 188 153 141 392 112 479 -58 26 -50 28
-62 25 -137 -9 -178 -127 -342 -538 -753 -146 -146 -398 -393 -561 -547 l-295
-282 -33 -143 c-19 -79 -36 -149 -38 -155 -4 -10 159 -13 796 -13 441 0 801 2
801 4 0 2 20 93 45 203 25 109 45 200 45 203 0 3 -201 4 -446 2 -245 -1 -444
1 -442 6 1 5 116 112 253 237 307 281 641 614 718 715 82 110 143 222 179 330
29 88 31 106 32 235 1 121 -2 149 -22 205 -77 223 -253 369 -515 429 -102 24
-228 31 -330 20z"/>
<path d="M5646 7140 c-10 -34 -66 -302 -66 -314 0 -10 19 -12 75 -10 58 2 75
0 75 -10 0 -8 -68 -292 -150 -632 -83 -341 -178 -731 -211 -869 -33 -137 -62
-256 -65 -263 -3 -11 -25 -13 -94 -10 -74 2 -91 0 -95 -12 -6 -22 -75 -322
-75 -328 0 -6 811 5 817 12 4 4 54 198 77 299 l6 27 -80 0 c-73 0 -81 2 -76
18 3 9 15 57 26 106 28 120 390 1627 396 1648 4 13 19 18 62 20 l56 3 39 158
c21 87 37 160 35 162 -1 1 -171 5 -376 7 -327 3 -373 2 -376 -12z"/>
<path d="M6600 7063 c-12 -54 -30 -131 -40 -170 l-18 -73 104 0 c69 0 104 -4
104 -11 0 -6 -27 -122 -60 -258 -95 -397 -326 -1359 -346 -1443 l-18 -78 -93
0 c-51 0 -93 -2 -93 -4 0 -3 -16 -75 -36 -161 -20 -86 -34 -158 -32 -160 2 -1
195 -6 430 -10 l427 -7 6 24 c8 36 65 311 65 315 0 1 -45 3 -100 3 -64 0 -100
4 -100 11 0 11 160 671 326 1342 l108 437 91 0 90 0 38 163 c20 89 37 165 37
170 0 4 -195 7 -434 7 l-434 0 -22 -97z"/>
<path d="M4000 5353 c-75 -151 -203 -255 -366 -298 -32 -8 -68 -15 -80 -15
-25 0 -20 14 -79 -212 l-43 -168 86 0 c110 0 203 20 280 59 34 17 66 31 71 31
5 0 -18 -107 -51 -237 -75 -301 -447 -1772 -454 -1795 -5 -17 11 -18 245 -18
l250 0 10 38 c6 20 89 354 186 742 97 388 232 923 300 1190 69 267 140 549
158 628 l34 142 -252 0 -252 0 -43 -87z"/>
<path d="M5873 4340 c-66 -14 -114 -40 -165 -92 -116 -119 -119 -311 -8 -412
39 -35 119 -66 170 -66 44 0 132 30 177 61 178 123 177 404 -1 484 -62 28
-117 36 -173 25z"/>
<path d="M5367 3424 c-21 -82 -40 -157 -43 -166 -5 -16 4 -18 89 -18 l94 0
-64 -322 c-34 -178 -78 -403 -95 -500 l-33 -178 -80 0 -81 0 -32 -146 c-18
-80 -36 -152 -39 -160 -4 -12 52 -14 400 -14 378 0 406 1 411 18 3 9 14 74 26
144 11 70 23 134 26 143 5 13 -6 15 -75 15 -59 0 -81 3 -81 13 0 19 46 275 81
455 55 283 158 846 154 850 -1 2 -142 6 -312 9 l-309 6 -37 -149z"/>
</g>
</svg>
