<?xml version="1.0" standalone="no"?>
<!DOCTYPE svg PUBLIC "-//W3C//DTD SVG 20010904//EN"
 "http://www.w3.org/TR/2001/REC-SVG-20010904/DTD/svg10.dtd">
<svg version="1.0" xmlns="http://www.w3.org/2000/svg"
 width="507.000000pt" height="593.000000pt" viewBox="0 0 507.000000 593.000000"
 preserveAspectRatio="xMidYMid meet">
<metadata>
Created by potrace 1.16, written by Peter Selinger 2001-2019
</metadata>
<g transform="translate(0.000000,593.000000) scale(0.100000,-0.100000)"
fill="#000000" stroke="none">
<path d="M423 5760 c-97 -20 -181 -93 -234 -203 l-29 -62 0 -2536 c0 -2499 0
-2537 20 -2593 34 -101 94 -166 197 -214 l58 -27 2135 0 2135 0 60 24 c87 35
172 124 203 211 l22 65 0 2055 0 2055 -23 38 c-13 21 -279 293 -591 606 -458
458 -575 571 -606 580 -44 13 -3279 14 -3347 1z m3114 -188 c9 -6 13 -119 15
-447 l3 -440 31 -65 c37 -78 71 -120 129 -160 83 -57 113 -60 627 -60 l468 0
0 -690 c0 -379 -3 -690 -7 -690 -9 0 -309 221 -408 299 -37 30 -111 92 -164
138 -121 106 -193 143 -273 143 -83 0 -125 -23 -316 -177 -92 -74 -175 -139
-184 -144 -17 -9 -18 22 -18 588 -1 467 -4 606 -14 635 -22 62 -72 115 -140
148 l-63 31 -551 0 -552 0 -53 -24 c-73 -34 -108 -66 -142 -134 -29 -56 -30
-64 -33 -215 -2 -87 -5 -158 -7 -158 -2 0 -29 26 -60 57 l-57 57 -18 -24 c-26
-35 -32 -76 -16 -113 7 -18 46 -69 85 -113 l71 -82 0 -471 c0 -392 -2 -471
-14 -471 -30 0 -354 239 -506 374 -41 37 -103 81 -137 98 -57 28 -70 30 -132
26 -82 -6 -112 -22 -226 -123 -44 -39 -127 -106 -185 -150 -58 -43 -158 -118
-222 -167 -64 -48 -120 -88 -123 -88 -3 0 -5 559 -5 1242 0 1215 0 1243 20
1282 12 25 36 52 62 69 l42 27 1531 0 c841 0 1535 -4 1542 -8z m1028 -846
l150 -145 -413 -1 c-386 0 -415 1 -450 19 -42 22 -70 50 -101 101 -20 34 -21
46 -21 445 l0 410 343 -342 c188 -187 410 -407 492 -487z m-1355 -229 c13 -7
35 -28 47 -46 l23 -34 0 -1171 c0 -1095 -1 -1173 -18 -1206 -35 -70 -26 -69
-596 -70 -571 0 -560 -1 -598 70 -17 33 -18 89 -18 1210 1 960 3 1179 14 1199
7 13 29 32 47 42 31 17 73 18 554 18 397 1 526 -2 545 -12z m830 -1082 c16 -8
55 -37 87 -63 96 -79 316 -249 511 -392 l182 -134 0 -335 c0 -185 -3 -360 -6
-388 l-7 -53 -41 8 c-70 12 -474 8 -566 -6 -219 -34 -427 -99 -640 -200 -402
-189 -614 -269 -940 -352 -95 -24 -100 -24 -274 26 -163 47 -207 63 -450 161
-363 147 -630 228 -865 263 -156 23 -383 40 -533 40 l-158 0 1 393 0 392 277
208 c152 115 309 233 347 263 39 30 89 62 113 70 39 15 45 15 85 0 40 -15 66
-34 269 -195 51 -40 175 -128 276 -194 l182 -121 0 -376 c0 -428 1 -436 76
-519 26 -29 65 -58 96 -72 l53 -24 550 0 c542 0 551 0 596 22 64 30 116 78
147 137 l27 51 3 527 3 526 137 109 c217 172 295 230 327 242 36 12 96 6 135
-14z m730 -1503 l45 -7 2 -262 2 -263 -197 0 c-355 0 -697 -41 -1054 -126
l-106 -25 -144 40 c-138 38 -416 102 -506 116 -24 4 -40 11 -35 15 4 5 66 25
138 45 150 43 358 126 635 253 301 138 488 197 707 222 81 9 434 4 513 -8z
m-3870 -87 c309 -38 526 -100 840 -240 96 -43 237 -102 313 -130 76 -29 140
-55 143 -57 2 -3 -48 -20 -113 -38 -187 -51 -321 -99 -425 -151 -54 -27 -103
-49 -109 -49 -6 0 -77 32 -157 71 -411 200 -550 240 -889 255 l-163 7 0 173 0
174 218 0 c135 0 265 -6 342 -15z m-275 -489 c233 -24 325 -54 665 -216 306
-147 437 -194 811 -290 105 -27 193 -51 195 -53 13 -12 -498 -234 -805 -349
-349 -131 -293 -121 -685 -119 -361 3 -367 3 -413 53 -52 56 -53 64 -53 543
l0 445 73 0 c39 0 135 -7 212 -14z m2150 -80 c328 -66 415 -88 415 -105 0 -3
-39 -20 -87 -36 -144 -48 -380 -142 -521 -206 l-67 -31 -112 22 c-204 39 -503
119 -662 176 -49 17 174 97 509 183 107 27 209 50 225 50 17 1 152 -24 300
-53z m2036 -397 c-1 -207 -6 -391 -11 -409 -5 -18 -21 -50 -34 -70 -48 -73 73
-67 -1581 -72 -819 -2 -1510 -1 -1535 2 -51 7 -63 -1 100 68 188 78 517 228
780 354 496 238 943 380 1430 457 256 40 365 48 649 47 l203 -1 -1 -376z"/>
<path d="M1364 5329 c-21 -6 -34 -17 -37 -32 -7 -29 7 -239 16 -255 5 -6 23
-12 42 -12 33 0 35 3 50 52 9 30 15 90 15 144 0 82 -2 95 -19 104 -22 11 -25
11 -67 -1z"/>
<path d="M848 5119 c-25 -14 -33 -71 -15 -105 17 -34 74 -81 135 -112 38 -20
47 -21 70 -10 49 24 41 55 -37 143 -82 94 -111 109 -153 84z"/>
<path d="M1788 5049 c-77 -81 -92 -111 -66 -137 28 -28 75 -7 181 81 51 42 60
74 31 115 -30 43 -62 30 -146 -59z"/>
<path d="M1290 4935 c-115 -33 -203 -106 -253 -213 -29 -61 -32 -76 -32 -163
0 -90 2 -99 38 -171 43 -87 98 -142 186 -185 50 -25 67 -28 156 -28 92 0 106
3 167 32 195 92 280 330 186 520 -81 164 -279 255 -448 208z m207 -164 c133
-67 174 -237 88 -361 -63 -91 -211 -124 -307 -67 -56 33 -100 93 -122 167 -36
121 32 238 164 281 40 13 133 3 177 -20z"/>
<path d="M644 4632 c-16 -11 -34 -48 -34 -71 0 -41 39 -53 159 -49 119 3 151
17 151 64 0 32 -23 42 -126 54 -105 12 -135 12 -150 2z"/>
<path d="M903 4159 c-88 -74 -97 -94 -67 -137 26 -38 77 -23 162 47 72 59 91
116 50 145 -38 27 -60 18 -145 -55z"/>
<path d="M1351 4084 c-17 -22 -21 -42 -23 -113 -5 -176 0 -191 61 -191 62 0
63 3 59 143 -3 109 -6 129 -24 154 -28 37 -47 39 -73 7z"/>
<path d="M2238 4193 c-38 -44 -28 -116 19 -134 13 -5 199 -9 412 -9 378 0 389
1 415 21 21 16 26 29 26 63 0 79 18 76 -447 76 -378 0 -411 -1 -425 -17z"/>
<path d="M2240 3830 c-31 -31 -27 -93 6 -119 26 -20 37 -21 426 -21 l399 0 24
25 c31 30 32 73 4 109 l-20 26 -410 0 c-396 0 -410 -1 -429 -20z"/>
<path d="M2246 3459 c-32 -26 -36 -84 -7 -120 l19 -24 407 0 407 0 24 28 c31
37 31 81 -1 112 l-24 25 -399 0 c-389 0 -400 -1 -426 -21z"/>
<path d="M2237 3102 c-25 -27 -22 -94 4 -118 20 -18 44 -19 423 -22 397 -3
402 -2 424 19 19 17 22 29 20 67 -2 38 -8 49 -28 59 -19 10 -124 13 -426 13
-376 0 -402 -1 -417 -18z"/>
<path d="M2246 2725 c-33 -30 -36 -85 -6 -115 19 -19 33 -20 425 -20 l406 0
24 25 c40 39 32 96 -16 120 -23 12 -95 15 -417 15 l-389 0 -27 -25z"/>
<path d="M2246 2369 c-20 -15 -26 -29 -26 -57 0 -83 -2 -82 452 -82 453 0 438
-3 438 80 0 83 16 80 -441 80 -386 0 -397 -1 -423 -21z"/>
<path d="M4092 2795 c-17 -13 -22 -25 -20 -48 3 -28 16 -40 113 -106 279 -189
306 -201 359 -160 49 38 34 64 -72 125 -52 29 -138 85 -193 124 -108 77 -150
92 -187 65z"/>
<path d="M1220 2711 c-14 -5 -98 -55 -185 -112 -88 -57 -243 -145 -345 -197
-102 -51 -191 -101 -199 -112 -11 -16 -11 -26 -1 -50 14 -34 44 -46 91 -36 59
12 293 135 537 283 74 45 129 73 138 69 16 -6 132 -84 309 -206 82 -57 107
-70 139 -70 44 0 65 20 66 61 0 31 -14 43 -150 139 -58 41 -142 103 -188 138
-76 58 -153 102 -177 101 -5 0 -21 -4 -35 -8z"/>
</g>
</svg>
