<?xml version="1.0" standalone="no"?>
<!DOCTYPE svg PUBLIC "-//W3C//DTD SVG 20010904//EN"
 "http://www.w3.org/TR/2001/REC-SVG-20010904/DTD/svg10.dtd">
<svg version="1.0" xmlns="http://www.w3.org/2000/svg"
 width="373.000000pt" height="328.000000pt" viewBox="0 0 373.000000 328.000000"
 preserveAspectRatio="xMidYMid meet">

<g transform="translate(0.000000,328.000000) scale(0.100000,-0.100000)"
fill="#000000" stroke="none">
<path d="M1043 2790 c-12 -5 -26 -17 -32 -27 -29 -56 -311 -802 -311 -825 0
-53 60 -85 109 -58 10 5 31 39 46 75 l28 65 181 -2 180 -3 23 -60 c13 -33 31
-66 40 -72 43 -32 113 0 113 52 0 37 -278 817 -298 836 -23 23 -52 29 -79 19z
m86 -458 c28 -79 51 -148 51 -153 0 -11 -230 -12 -230 -1 -1 18 116 310 121
304 4 -4 30 -71 58 -150z"/>
<path d="M1610 2793 c-8 -3 -23 -12 -32 -21 -17 -14 -18 -48 -18 -439 0 -410
1 -424 20 -443 19 -19 33 -20 203 -20 100 0 198 5 217 10 62 17 126 65 157
117 25 43 28 57 28 138 0 98 -17 146 -69 194 l-25 24 22 41 c18 33 22 58 22
131 0 101 -14 143 -66 195 -40 39 -71 55 -137 69 -53 11 -294 14 -322 4z m345
-176 c52 -44 42 -162 -15 -192 -20 -10 -60 -15 -130 -15 l-100 0 0 115 0 115
109 0 c100 0 112 -2 136 -23z m57 -395 c19 -18 23 -34 23 -82 0 -52 -4 -63
-28 -87 -27 -27 -30 -28 -162 -31 l-135 -4 0 117 0 117 140 -4 c130 -3 141 -5
162 -26z"/>
<path d="M2610 2787 c-93 -21 -167 -82 -214 -175 -32 -63 -56 -182 -56 -276 1
-172 43 -300 126 -376 67 -62 122 -83 231 -88 83 -4 97 -2 150 22 132 61 211
188 153 246 -23 23 -69 26 -91 8 -8 -7 -28 -30 -43 -51 -15 -20 -38 -45 -51
-53 -70 -46 -181 -35 -245 23 -61 54 -75 104 -75 263 0 135 0 136 35 205 44
88 72 108 153 113 90 5 142 -24 179 -98 29 -59 59 -90 88 -90 31 0 70 39 70
69 0 77 -94 203 -178 239 -62 27 -161 35 -232 19z"/>
<path d="M2805 1576 c-40 -39 -65 -71 -65 -85 0 -19 6 -21 50 -21 l50 0 0
-118 c0 -164 2 -162 -186 -162 -96 0 -144 -4 -152 -12 -17 -17 -15 -65 4 -72
9 -3 77 -6 152 -6 123 0 141 3 176 23 72 41 80 62 86 210 l5 132 48 3 c73 5
71 22 -9 103 -38 38 -74 69 -81 69 -7 0 -42 -29 -78 -64z"/>
<path d="M933 1342 c-7 -4 -23 -33 -37 -64 -16 -36 -48 -80 -90 -122 -37 -36
-66 -73 -66 -81 0 -20 36 -55 57 -55 19 0 83 41 83 53 0 4 7 7 15 7 12 0 15
-33 17 -212 l3 -212 24 -13 c31 -15 58 -2 71 33 15 40 12 613 -3 644 -13 26
-51 37 -74 22z"/>
<path d="M1393 1329 c-74 -37 -123 -112 -123 -188 0 -70 68 -91 100 -31 5 10
10 28 10 40 0 34 62 90 99 90 39 0 87 -24 101 -49 32 -61 -7 -130 -126 -220
-142 -107 -189 -178 -182 -271 4 -64 20 -70 211 -70 185 0 216 10 217 67 0 43
-33 53 -177 53 -73 0 -133 4 -133 8 0 12 77 83 146 135 113 85 163 162 164
250 0 151 -170 254 -307 186z"/>
<path d="M2016 1343 c-94 -24 -175 -144 -131 -193 29 -33 61 -25 90 20 36 57
66 74 122 67 75 -8 116 -76 83 -138 -14 -25 -62 -49 -99 -49 -43 0 -61 -10
-72 -38 -16 -41 10 -68 73 -75 72 -9 102 -33 106 -86 3 -35 -2 -46 -27 -71
-24 -25 -38 -30 -76 -30 -60 0 -80 12 -105 59 -22 44 -54 57 -87 35 -32 -20
-29 -60 6 -116 67 -105 244 -123 340 -35 72 66 82 232 18 285 -15 13 -14 18
10 55 37 58 43 147 14 205 -44 87 -159 132 -265 105z"/>
</g>
</svg>
